<?xml version="1.0" encoding="utf-8"?>
<!-- Generator: Adobe Illustrator 17.0.0, SVG Export Plug-In . SVG Version: 6.00 Build 0)  -->
<!DOCTYPE svg PUBLIC "-//W3C//DTD SVG 1.1//EN" "http://www.w3.org/Graphics/SVG/1.1/DTD/svg11.dtd">
<svg version="1.1" id="Layer_1" xmlns="http://www.w3.org/2000/svg" xmlns:xlink="http://www.w3.org/1999/xlink" x="0px" y="0px"
	 width="972px" height="493.714px" viewBox="0 0 972 493.714" enable-background="new 0 0 972 493.714" xml:space="preserve">
<g>
	<g>
		<g>
			<path fill="#094A3C" d="M650.481,17.857c-12.24,52.478-25.071,106.328-55.595,150.735
				c-30.525,44.408-83.224,77.856-136.501,69.771c-64.67-9.813-108.526-74.616-171.739-91.425
				c-32.067-8.527-66.928-3.603-96.96,10.508s-55.432,36.959-75.515,63.374C156.008,110.932,297.662,89.767,400.066,99.275
				c55.92,5.192,114.098,18.264,166.86-0.977C604.321,84.661,635.436,54.704,650.481,17.857z"/>
			<path fill="#EAB252" d="M552.763,55.037c-22.414,20.573-53.524,29.252-83.879,31.303s-60.759-1.829-91.162-2.98
				c-91.453-3.462-186.964,20.056-255.424,80.791C151.524,83.024,244.243,33.182,327.6,35.084
				c38.012,0.867,75.027,11.411,112.293,18.955S516.376,66.068,552.763,55.037z"/>
			<path fill="#094A3C" d="M100.512,206.667c-3.608,0.63-6.087,7.756-7.88,10.87c-11.313,19.655-21.833,39.926-28.766,61.587
				c-8.407,26.268-11.316,54.945-3.718,81.458c7.644,26.674,25.72,51.397,23.61,79.064c13.049-6.016,19.968-21.125,20.324-35.49
				c0.356-14.364-4.656-28.263-9.773-41.69s-10.483-27.121-10.886-41.484c-0.455-16.238,5.505-32.009,13.063-46.387
				c5.947-11.314,13.041-22.351,15.529-34.888c1.529-7.704,0.94-16.315-2.596-23.42c-1.205-2.421-4.997-9.424-8.174-9.659
				C100.995,206.612,100.751,206.626,100.512,206.667z"/>
			<path fill="#EAB252" d="M122.501,116.676c0.551,0.056,4.102,1.245,3.926,2.08c-5.93,28.092-12.12,56.842-27.369,81.169
				c-4.778,7.622-10.378,14.691-15.463,22.111c-24.511,35.765-36.514,79.39-36.96,122.745
				c-11.274-19.964-18.182-42.347-20.386-65.168c-0.727-7.524-0.946-15.156,0.33-22.607c2.027-11.836,7.81-22.846,15.544-32.033
				c11.015-13.085,25.718-22.498,37.914-34.49C101.581,169.296,110.322,143.325,122.501,116.676z"/>
			<path fill="#EAB252" d="M114.135,113.326c-3.515-0.726-10.282-1.341-11.212-0.791c-3.306,1.957-2.858,6.128-3.666,10.019
				c-1.992,9.581-4.816,19.074-9.761,27.581c-6.606,11.365-17.483,20.864-30.452,23.012c0.161,11.999-7.633,20.641-16.217,30.056
				c-8.069,8.85-18.829,23.814-21.783,41.074c12.483-20.609,37.908-42.401,55.503-58.863c20.184-18.885,34.272-44.187,39.693-71.291
				C116.289,113.878,115.434,113.594,114.135,113.326z"/>
			<path fill="#094A3C" d="M93.223,119.855c0,0-0.554,39.874-34.89,48.181c0,0-12.184-19.937,2.215-27.136
				C60.549,140.9,86.578,132.593,93.223,119.855z"/>
			<path fill="#212321" d="M77.67,52.923c0.02,0.008,0.04,0.017,0.06,0.025c1.766,0.761,3.119,2.383,4.984,2.852
				c3.423,0.86,6.643-3.019,6.191-6.52c-0.452-3.5-3.405-6.195-6.586-7.725c-14.694-7.069-35.044,7.833-25.131,23.828
				c0.723,1.166,1.61,2.282,1.905,3.622c0.546,2.477-1.123,4.958-3.186,6.433c-2.063,1.475-4.53,2.277-6.695,3.598
				c-4.521,2.758-7.508,7.876-7.685,13.17c-0.177,5.293,2.461,10.6,6.788,13.654c4.312,3.044,10.594,4.54,12.056,9.612
				c1.139,3.951-1.494,8.046-4.661,10.669c6.408-0.317,12.701-2.655,17.762-6.599c2.055-1.602,3.998-3.615,4.537-6.165
				c0.817-3.866-1.839-7.642-4.917-10.12s-6.748-4.281-9.303-7.295c-2.555-3.014-3.574-7.943-0.801-10.758
				c2.938-2.981,8.466-2.088,11.187-5.268c2.499-2.921,1.124-7.448-0.883-10.727s-4.644-6.615-4.35-10.449
				C69.254,54.691,73.912,51.361,77.67,52.923z"/>
			<path fill="#212321" d="M96.361,74.074l-7.753-14.03c0,0-3.323-11.814,7.753-5.169c0,0,4.43,7.753,0,20.675"/>
			<path fill="#212321" d="M111.129,106.195l-11.076,0.369c0,0-10.338-7.015-11.076-13.66c0,0,0.369-3.323,8.492,3.692
				L111.129,106.195z"/>
		</g>
		<g>
			<g>
				<path fill="#EAB252" d="M257.339,172.28c66.962,0,123.613,45.098,141.135,106.517h13.4
					c-17.884-68.629-80.388-119.439-154.535-119.439c-88.051,0-159.691,71.627-159.691,159.678
					c0,88.051,71.64,159.678,159.691,159.678c54.247,0,102.265-27.188,131.133-68.668h-16.088
					c-26.891,33.946-68.474,55.746-115.045,55.746c-80.931,0-146.769-65.825-146.769-146.756
					C110.57,238.118,176.408,172.28,257.339,172.28z"/>
			</g>
		</g>
		<g>
			<path fill="#094A3C" d="M213.539,264.332c-2.72,12.577,2.84,26.223,12.761,34.417c9.921,8.194,23.604,11.146,36.323,9.195
				c12.719-1.951,24.463-8.483,33.931-17.196c1.147-1.056,2.292-2.182,2.925-3.606c0.801-1.802,0.694-3.859,0.571-5.827
				c-0.65-10.444-1.301-20.887-1.951-31.331c-0.148-2.369-0.317-4.82-1.431-6.917c-0.854-1.608-2.203-2.888-3.528-4.137
				c-7.01-6.607-20.73-15.523-24.544-23.979c15.304-2.576,34.027,4.173,46.018,13.484c13.144,10.206,21.809,26.513,21.223,43.143
				c-0.565,16.025-9.644,31.167-22.608,40.605c-12.964,9.438-29.433,13.434-45.453,12.722c-0.209,1.401-0.417,2.802-0.626,4.204
				c18.533,11.292,27.942,35.67,21.801,56.485c-6.141,20.815-27.275,36.183-48.969,35.608c7.954-6.811,14.449-15.316,18.924-24.783
				c1.177-2.489,2.235-5.149,2.101-7.899c-0.162-3.302-2.007-6.252-3.796-9.032c-17.079-26.549-34.157-53.098-51.236-79.647
				c-1.132-1.759-2.301-3.633-2.37-5.724c-0.047-1.442,0.438-2.842,0.918-4.203C207.528,281.392,210.531,272.869,213.539,264.332z"
				/>
			<path fill="#EAB252" d="M186.875,274.841c-0.012,0.039-0.023,0.077-0.035,0.115c3.67-11.653,12.484-21.302,23.089-27.368
				c10.605-6.066,22.891-8.762,35.097-9.284c8.085-0.345,16.341,0.258,23.904,3.138c7.563,2.88,14.407,8.239,17.861,15.558
				c2.359,5,3.045,10.652,2.872,16.178c-0.262,8.362-2.534,16.842-7.605,23.497c-5.071,6.654-13.174,11.242-21.534,10.932
				c14.705,2.77,30.668-2.44,40.908-13.352s14.427-27.173,10.73-41.673c-5.082-19.931-24.154-34.429-44.464-37.685
				c-19.676-3.154-42.173,2.753-58.228,14.462c-7.023,5.122-13.195,11.639-17.216,19.418c-2.073,4.01-3.618,8.301-4.544,12.72
				C186.855,265.591,188.007,271.063,186.875,274.841z"/>
			<path fill="#EAB252" d="M213.285,264.869c-0.01,8.51-2.257,16.877-1.811,25.519c0.45,8.713,2.715,17.542,7.893,24.564
				c3.651,4.951,8.569,8.791,13.333,12.681c7.17,5.856,14.129,11.966,20.998,18.173c4.584,4.143,9.182,8.391,12.525,13.588
				c7.52,11.691,7.597,27.461,1.17,39.787c-6.427,12.326-18.812,21.095-32.356,24.225c6.741-6.02,12.737-13.714,13.618-22.708
				c0.613-6.26-1.328-12.509-3.966-18.22c-3.676-7.959-8.757-15.266-14.937-21.483c-6.319-6.356-13.763-11.574-19.614-18.363
				c-7.13-8.274-11.598-18.579-14.264-29.171c-1.337-5.313-2.25-10.795-1.857-16.259c0.467-6.476,2.805-12.656,6.2-18.151
				C202.932,274.655,208.324,266.379,213.285,264.869z"/>
		</g>
	</g>
	<g>
		<g>
			<path fill="#094A3C" d="M359.842,323.001h15.148v63.83h-14.89l-0.777-9.322c-3.625,7.509-13.594,11.134-20.715,11.265
				c-18.902,0.129-32.885-11.523-32.885-33.922c0-22.009,14.63-33.533,33.274-33.403c8.545,0,16.702,4.013,20.327,10.358
				L359.842,323.001z M321.519,354.851c0,12.171,8.415,19.422,18.902,19.422c24.859,0,24.859-38.712,0-38.712
				C329.935,335.561,321.519,342.681,321.519,354.851z"/>
			<path fill="#094A3C" d="M402.951,323.001l1.166,7.38c4.92-7.898,11.522-9.063,17.996-9.063c6.602,0,12.946,2.59,16.442,6.085
				l-7.121,13.725c-3.237-2.719-6.215-4.143-11.393-4.143c-8.286,0-15.925,4.402-15.925,16.184v33.663h-15.796v-63.83H402.951z"/>
			<path fill="#094A3C" d="M495.13,323.001h15.147v63.83h-14.889l-0.777-9.322c-3.625,7.509-13.595,11.134-20.715,11.265
				c-18.903,0.129-32.886-11.523-32.886-33.922c0-22.009,14.63-33.533,33.274-33.403c8.546,0,16.703,4.013,20.328,10.358
				L495.13,323.001z M456.806,354.851c0,12.171,8.415,19.422,18.902,19.422c24.859,0,24.859-38.712,0-38.712
				C465.222,335.561,456.806,342.681,456.806,354.851z"/>
			<path fill="#094A3C" d="M566.075,386.831V352.65c0-8.415-4.403-16.054-13.077-16.054c-8.546,0-13.595,7.639-13.595,16.054v34.181
				h-15.796v-63.959h14.63l1.166,7.768c3.366-6.474,10.747-8.804,16.831-8.804c7.64,0,15.279,3.107,18.903,11.912
				c5.696-9.063,13.077-11.653,21.363-11.653c18.126,0,27.059,11.135,27.059,30.297v34.44h-15.796v-34.44
				c0-8.415-3.496-15.537-12.04-15.537c-8.546,0-13.853,7.38-13.853,15.796v34.181H566.075z"/>
			<path fill="#094A3C" d="M638.313,413.502v-90.5h14.759l1.036,8.804c4.92-7.121,13.465-10.228,20.715-10.228
				c19.679,0,32.756,14.63,32.756,33.404c0,18.644-11.782,33.403-32.239,33.403c-6.732,0-16.702-2.072-21.233-9.063v34.18H638.313z
				 M691.785,354.981c0-9.97-6.733-18.127-18.126-18.127c-11.394,0-18.126,8.157-18.126,18.127c0,9.969,7.379,18.126,18.126,18.126
				C684.404,373.107,691.785,364.95,691.785,354.981z"/>
			<path fill="#094A3C" d="M769.851,323.001h15.148v63.83h-14.89l-0.777-9.322c-3.625,7.509-13.594,11.134-20.715,11.265
				c-18.902,0.129-32.885-11.523-32.885-33.922c0-22.009,14.63-33.533,33.274-33.403c8.545,0,16.702,4.013,20.327,10.358
				L769.851,323.001z M731.528,354.851c0,12.171,8.415,19.422,18.902,19.422c24.859,0,24.859-38.712,0-38.712
				C739.943,335.561,731.528,342.681,731.528,354.851z"/>
			<path fill="#094A3C" d="M812.96,323.001l1.166,7.38c4.92-7.898,11.522-9.063,17.996-9.063c6.602,0,12.946,2.59,16.442,6.085
				l-7.121,13.725c-3.237-2.719-6.215-4.143-11.393-4.143c-8.286,0-15.925,4.402-15.925,16.184v33.663H798.33v-63.83H812.96z"/>
			<path fill="#094A3C" d="M905.139,323.001h15.148v63.83h-14.89l-0.777-9.322c-3.625,7.509-13.594,11.134-20.715,11.265
				c-18.902,0.129-32.885-11.523-32.885-33.922c0-22.009,14.63-33.533,33.274-33.403c8.545,0,16.702,4.013,20.327,10.358
				L905.139,323.001z M866.816,354.851c0,12.171,8.415,19.422,18.902,19.422c24.859,0,24.859-38.712,0-38.712
				C875.231,335.561,866.816,342.681,866.816,354.851z"/>
		</g>
	</g>
	<circle fill="#EAB252" cx="948.925" cy="375.856" r="10.316"/>
	<g>
		<path d="M670.582,399.483c1.023-0.215,2.639-0.377,4.282-0.377c2.344,0,3.852,0.404,4.983,1.32c0.942,0.7,1.508,1.778,1.508,3.205
			c0,1.751-1.158,3.286-3.07,3.986v0.054c1.724,0.431,3.744,1.858,3.744,4.552c0,1.562-0.62,2.747-1.536,3.636
			c-1.265,1.158-3.312,1.697-6.276,1.697c-1.616,0-2.854-0.108-3.635-0.215V399.483z M672.925,406.917h2.128
			c2.478,0,3.932-1.293,3.932-3.043c0-2.128-1.616-2.963-3.986-2.963c-1.077,0-1.696,0.081-2.075,0.162V406.917z M672.925,415.617
			c0.458,0.081,1.132,0.108,1.967,0.108c2.424,0,4.66-0.889,4.66-3.528c0-2.478-2.128-3.501-4.688-3.501h-1.939V415.617z"/>
		<path d="M690.571,399.483c1.185-0.242,2.881-0.377,4.497-0.377c2.505,0,4.122,0.458,5.253,1.481
			c0.916,0.808,1.427,2.047,1.427,3.448c0,2.397-1.508,3.986-3.42,4.633v0.081c1.401,0.485,2.235,1.778,2.666,3.663
			c0.594,2.532,1.025,4.282,1.401,4.983h-2.423c-0.297-0.512-0.702-2.074-1.213-4.336c-0.539-2.505-1.508-3.448-3.635-3.528h-2.21
			v7.865h-2.343V399.483z M692.913,407.752h2.398c2.505,0,4.094-1.374,4.094-3.448c0-2.343-1.696-3.367-4.174-3.394
			c-1.133,0-1.939,0.108-2.318,0.215V407.752z"/>
		<path d="M713.521,411.684l-1.884,5.71h-2.425l6.168-18.153h2.829l6.193,18.153h-2.504l-1.939-5.71H713.521z M719.474,409.853
			l-1.778-5.225c-0.405-1.185-0.673-2.262-0.943-3.313H716.7c-0.271,1.077-0.566,2.182-0.917,3.286l-1.776,5.252H719.474z"/>
		<path d="M732.459,417.394v-18.153h2.558l5.818,9.184c1.348,2.128,2.398,4.04,3.26,5.898l0.054-0.027
			c-0.216-2.424-0.269-4.633-0.269-7.461v-7.595h2.209v18.153h-2.37l-5.764-9.211c-1.265-2.02-2.478-4.094-3.394-6.06l-0.081,0.027
			c0.135,2.289,0.189,4.471,0.189,7.488v7.757H732.459z"/>
		<path d="M755.572,399.483c1.428-0.215,3.124-0.377,4.983-0.377c3.366,0,5.763,0.781,7.352,2.262
			c1.616,1.481,2.559,3.582,2.559,6.518c0,2.963-0.917,5.387-2.613,7.057c-1.696,1.697-4.497,2.613-8.026,2.613
			c-1.67,0-3.07-0.081-4.256-0.215V399.483z M757.915,415.536c0.594,0.108,1.456,0.135,2.37,0.135c5.011,0,7.731-2.801,7.731-7.703
			c0.026-4.282-2.396-7.003-7.352-7.003c-1.213,0-2.128,0.108-2.748,0.242V415.536z"/>
		<path d="M790,399.241h9.776v1.966h-7.434v6.033h6.869v1.939h-6.869v8.215H790V399.241z"/>
		<path d="M809.342,411.684l-1.887,5.71h-2.423l6.167-18.153h2.827l6.196,18.153h-2.505l-1.939-5.71H809.342z M815.294,409.853
			l-1.778-5.225c-0.403-1.185-0.674-2.262-0.942-3.313h-0.055c-0.268,1.077-0.565,2.182-0.914,3.286l-1.779,5.252H815.294z"/>
		<path d="M827.956,414.539c1.051,0.646,2.586,1.185,4.202,1.185c2.396,0,3.797-1.266,3.797-3.097c0-1.697-0.97-2.666-3.42-3.609
			c-2.963-1.05-4.794-2.586-4.794-5.144c0-2.828,2.344-4.929,5.872-4.929c1.859,0,3.205,0.431,4.014,0.889l-0.646,1.912
			c-0.594-0.323-1.805-0.862-3.448-0.862c-2.478,0-3.421,1.481-3.421,2.72c0,1.697,1.104,2.532,3.609,3.501
			c3.07,1.185,4.633,2.666,4.633,5.333c0,2.801-2.075,5.225-6.356,5.225c-1.751,0-3.663-0.512-4.633-1.158L827.956,414.539z"/>
		<path d="M849.291,399.241v7.595h8.782v-7.595h2.37v18.153h-2.37v-8.511h-8.782v8.511h-2.343v-18.153H849.291z"/>
		<path d="M872.244,399.241v18.153H869.9v-18.153H872.244z"/>
		<path d="M897.24,408.129c0,6.249-3.797,9.561-8.43,9.561c-4.795,0-8.162-3.717-8.162-9.211c0-5.764,3.582-9.535,8.43-9.535
			C894.034,398.945,897.24,402.742,897.24,408.129z M883.153,408.425c0,3.878,2.102,7.353,5.791,7.353
			c3.717,0,5.818-3.421,5.818-7.541c0-3.609-1.885-7.38-5.791-7.38C885.092,400.857,883.153,404.439,883.153,408.425z"/>
		<path d="M905.674,417.394v-18.153h2.558l5.818,9.184c1.348,2.128,2.398,4.04,3.26,5.898l0.054-0.027
			c-0.215-2.424-0.269-4.633-0.269-7.461v-7.595h2.209v18.153h-2.37l-5.764-9.211c-1.265-2.02-2.478-4.094-3.394-6.06l-0.081,0.027
			c0.135,2.289,0.189,4.471,0.189,7.488v7.757H905.674z"/>
	</g>
</g>
</svg>
